<mxfile host="app.diagrams.net" modified="2022-05-19T19:02:19.143Z" agent="5.0 (X11)" etag="GS1SVm1NMMXejNzC-ZnZ" version="18.0.0" type="github">
  <diagram name="Page-1" id="d66fe2ae-3e9f-cf2f-6d29-e24063ad5d60">
    <mxGraphModel dx="3302" dy="604" grid="1" gridSize="10" guides="1" tooltips="1" connect="1" arrows="1" fold="1" page="1" pageScale="1" pageWidth="1100" pageHeight="850" background="none" math="0" shadow="0">
      <root>
        <mxCell id="0" />
        <mxCell id="1" parent="0" />
        <mxCell id="5fc5e51f7ca293a3-122" value="&lt;font style=&quot;font-size: 20px;&quot;&gt;server&lt;/font&gt;" style="fontColor=#0066CC;verticalAlign=top;verticalLabelPosition=bottom;labelPosition=center;align=center;html=1;fillColor=#CCCCCC;strokeColor=#6881B3;gradientColor=none;gradientDirection=north;strokeWidth=2;shape=mxgraph.networks.server;rounded=1;shadow=0;comic=0;labelBackgroundColor=#ffffff;" parent="1" vertex="1">
          <mxGeometry x="-1683" y="100" width="90" height="100" as="geometry" />
        </mxCell>
        <mxCell id="5fc5e51f7ca293a3-123" style="edgeStyle=none;html=1;labelBackgroundColor=none;endArrow=none;strokeWidth=2;fontFamily=Verdana;fontSize=28;fontColor=#0066CC;rounded=0;strokeColor=#6881B3;" parent="1" source="5fc5e51f7ca293a3-130" target="5fc5e51f7ca293a3-131" edge="1">
          <mxGeometry relative="1" as="geometry" />
        </mxCell>
        <mxCell id="5fc5e51f7ca293a3-125" style="edgeStyle=none;html=1;labelBackgroundColor=none;endArrow=none;strokeWidth=2;fontFamily=Verdana;fontSize=28;fontColor=#0066CC;rounded=0;strokeColor=#6881B3;" parent="1" source="5fc5e51f7ca293a3-130" target="5fc5e51f7ca293a3-133" edge="1">
          <mxGeometry relative="1" as="geometry" />
        </mxCell>
        <mxCell id="5fc5e51f7ca293a3-126" style="edgeStyle=none;html=1;labelBackgroundColor=none;endArrow=none;strokeWidth=2;fontFamily=Verdana;fontSize=28;fontColor=#0066CC;rounded=0;strokeColor=#6881B3;entryX=0;entryY=0.5;entryDx=0;entryDy=0;entryPerimeter=0;" parent="1" source="5fc5e51f7ca293a3-130" target="dRbhdoeHwVVpCG-c0DXq-1" edge="1">
          <mxGeometry relative="1" as="geometry">
            <mxPoint x="-1683" y="277.52941176470586" as="targetPoint" />
          </mxGeometry>
        </mxCell>
        <mxCell id="5fc5e51f7ca293a3-128" style="edgeStyle=none;html=1;labelBackgroundColor=none;endArrow=none;strokeWidth=2;fontFamily=Verdana;fontSize=28;fontColor=#0066CC;rounded=0;strokeColor=#6881B3;" parent="1" source="5fc5e51f7ca293a3-130" target="5fc5e51f7ca293a3-134" edge="1">
          <mxGeometry relative="1" as="geometry" />
        </mxCell>
        <mxCell id="5fc5e51f7ca293a3-129" style="edgeStyle=none;html=1;labelBackgroundColor=none;endArrow=none;strokeWidth=2;fontFamily=Verdana;fontSize=28;fontColor=#0066CC;rounded=0;strokeColor=#6881B3;" parent="1" source="5fc5e51f7ca293a3-130" target="5fc5e51f7ca293a3-122" edge="1">
          <mxGeometry relative="1" as="geometry" />
        </mxCell>
        <mxCell id="5fc5e51f7ca293a3-130" value="&lt;font style=&quot;font-size: 20px;&quot;&gt;switch&lt;/font&gt;" style="fontColor=#0066CC;verticalAlign=top;verticalLabelPosition=bottom;labelPosition=center;align=center;html=1;fillColor=#CCCCCC;strokeColor=#6881B3;gradientColor=none;gradientDirection=north;strokeWidth=2;shape=mxgraph.networks.switch;rounded=1;shadow=0;comic=0;labelBackgroundColor=#ffffff;" parent="1" vertex="1">
          <mxGeometry x="-1873" y="220" width="100" height="30" as="geometry" />
        </mxCell>
        <mxCell id="5fc5e51f7ca293a3-131" value="&lt;font style=&quot;font-size: 20px;&quot;&gt;peer1&lt;/font&gt;" style="fontColor=#0066CC;verticalAlign=top;verticalLabelPosition=bottom;labelPosition=center;align=center;html=1;fillColor=#CCCCCC;strokeColor=#6881B3;gradientColor=none;gradientDirection=north;strokeWidth=2;shape=mxgraph.networks.pc;rounded=1;shadow=0;comic=0;labelBackgroundColor=#ffffff;" parent="1" vertex="1">
          <mxGeometry x="-2050" y="54" width="100" height="70" as="geometry" />
        </mxCell>
        <mxCell id="5fc5e51f7ca293a3-133" value="&lt;font style=&quot;font-size: 20px;&quot;&gt;peerK&lt;/font&gt;" style="fontColor=#0066CC;verticalAlign=top;verticalLabelPosition=bottom;labelPosition=center;align=center;html=1;fillColor=#CCCCCC;strokeColor=#6881B3;gradientColor=none;gradientDirection=north;strokeWidth=2;shape=mxgraph.networks.pc;rounded=1;shadow=0;comic=0;labelBackgroundColor=#ffffff;" parent="1" vertex="1">
          <mxGeometry x="-2050" y="355" width="100" height="70" as="geometry" />
        </mxCell>
        <mxCell id="5fc5e51f7ca293a3-134" value="&lt;font style=&quot;font-size: 20px;&quot;&gt;peer2&lt;/font&gt;" style="fontColor=#0066CC;verticalAlign=top;verticalLabelPosition=bottom;labelPosition=center;align=center;html=1;fillColor=#CCCCCC;strokeColor=#6881B3;gradientColor=none;gradientDirection=north;strokeWidth=2;shape=mxgraph.networks.pc;rounded=1;shadow=0;comic=0;labelBackgroundColor=#ffffff;" parent="1" vertex="1">
          <mxGeometry x="-2063" y="185" width="100" height="70" as="geometry" />
        </mxCell>
        <mxCell id="dRbhdoeHwVVpCG-c0DXq-1" value="&lt;font style=&quot;font-size: 20px;&quot;&gt;tracker&lt;/font&gt;" style="fontColor=#0066CC;verticalAlign=top;verticalLabelPosition=bottom;labelPosition=center;align=center;html=1;fillColor=#CCCCCC;strokeColor=#6881B3;gradientColor=none;gradientDirection=north;strokeWidth=2;shape=mxgraph.networks.server;rounded=1;shadow=0;comic=0;labelBackgroundColor=#ffffff;" parent="1" vertex="1">
          <mxGeometry x="-1683" y="270" width="90" height="100" as="geometry" />
        </mxCell>
        <mxCell id="sqG9bgqjpmHqjaQHSmaF-4" value="" style="endArrow=none;dashed=1;html=1;dashPattern=1 3;strokeWidth=4;rounded=0;strokeColor=#6881B3;" edge="1" parent="1">
          <mxGeometry width="50" height="50" relative="1" as="geometry">
            <mxPoint x="-2000.5" y="340" as="sourcePoint" />
            <mxPoint x="-2000.5" y="300" as="targetPoint" />
          </mxGeometry>
        </mxCell>
      </root>
    </mxGraphModel>
  </diagram>
</mxfile>
